<?xml version="1.0" encoding="utf-8"?>
<!-- Generator: Adobe Illustrator 24.1.2, SVG Export Plug-In . SVG Version: 6.00 Build 0)  -->
<svg version="1.1" id="Ebene_1" xmlns="http://www.w3.org/2000/svg" xmlns:xlink="http://www.w3.org/1999/xlink" x="0px" y="0px"
	 viewBox="0 0 1920 1080" style="enable-background:new 0 0 1920 1080;" xml:space="preserve">
<style type="text/css">
	.st0{fill:#2C2C2C;}
	.st1{fill:url(#Orange_1_);}
	.st2{fill:url(#Amber_1_);}
	.st3{fill:url(#Aqua_1_);}
	.st4{fill:url(#Blue_1_);}
	.st5{fill:url(#Brown_1_);}
	.st6{fill:url(#Deepblue_1_);}
	.st7{fill:url(#Green_1_);}
	.st8{fill:url(#Grey_1_);}
	.st9{fill:url(#MATE_1_);}
	.st10{fill:url(#Pink_1_);}
	.st11{fill:url(#Purple_1_);}
	.st12{fill:url(#Red_1_);}
	.st13{fill:url(#Teal_1_);}
	.st14{fill:url(#Yellow_1_);}
	.st15{fill:#EF0C89;}
	.st16{fill:none;stroke:url(#SVGID_1_);stroke-width:2;stroke-miterlimit:1;}
</style>
<image style="display:none;overflow:visible;" width="1000" height="476" xlink:href="75E27DF4.jpg"  transform="matrix(1 0 0 1 928 615)">
</image>
<g>
	<g>
		<path class="st0" d="M640.7,287.2c9.6-16.2,18.8-32.4,27.5-48.6c8.7-16.2,16.7-32.5,24.1-49h59.1c-13.1,25.6-26.6,50.5-40.5,74.5
			c-14,24-28.7,48.2-44.3,72.5v91h-53.6v-90.3c-15.6-24.3-30.4-48.5-44.5-72.8c-14.1-24.3-27.6-49.2-40.7-74.9h62.2
			c7.3,16.4,15.2,32.8,23.7,49C622,254.8,631,271,640.7,287.2z"/>
		<path class="st0" d="M816.9,242.1c15.1,0,27.7,1.7,37.8,5.2c10.1,3.4,18.1,8.4,24.2,14.8c6.1,6.4,10.4,14.2,12.9,23.4
			c2.5,9.2,3.8,19.4,3.8,30.6v106.5c-7.3,1.6-17.5,3.5-30.6,5.7c-13.1,2.2-28.9,3.3-47.4,3.3c-11.7,0-22.3-1-31.8-3.1
			c-9.5-2.1-17.7-5.4-24.6-10.1c-6.9-4.7-12.1-10.8-15.8-18.4c-3.7-7.6-5.5-16.8-5.5-27.8c0-10.5,2.1-19.5,6.4-26.8
			c4.2-7.3,9.9-13.2,17-17.5c7.1-4.3,15.2-7.5,24.4-9.4c9.2-1.9,18.7-2.9,28.5-2.9c6.6,0,12.5,0.3,17.7,0.9
			c5.2,0.6,9.3,1.3,12.5,2.2v-4.8c0-8.7-2.6-15.7-7.9-21c-5.3-5.3-14.4-7.9-27.5-7.9c-8.7,0-17.3,0.6-25.8,1.9
			c-8.5,1.3-15.8,3-22,5.3l-6.5-41.2c3-0.9,6.7-1.9,11.2-2.9c4.5-1,9.3-1.9,14.6-2.7c5.3-0.8,10.8-1.5,16.7-2.1
			C805.1,242.4,811,242.1,816.9,242.1z M821,391.9c5,0,9.8-0.1,14.4-0.3c4.6-0.2,8.2-0.6,11-1v-38.8c-2.1-0.5-5.2-0.9-9.3-1.4
			c-4.1-0.5-7.9-0.7-11.3-0.7c-4.8,0-9.3,0.3-13.6,0.9c-4.2,0.6-8,1.7-11.2,3.3c-3.2,1.6-5.7,3.8-7.6,6.5c-1.8,2.7-2.7,6.2-2.7,10.3
			c0,8,2.7,13.6,8.1,16.7C804.3,390.3,811.6,391.9,821,391.9z"/>
		<path class="st0" d="M1050.8,292.3c-4.6-1.1-10-2.3-16.1-3.6c-6.2-1.3-12.8-1.9-19.9-1.9c-3.2,0-7,0.3-11.5,0.9
			c-4.5,0.6-7.8,1.2-10.1,1.9v138.1h-51.2v-171c9.2-3.2,20-6.2,32.5-9.1c12.5-2.9,26.4-4.3,41.7-4.3c2.7,0,6.1,0.2,10,0.5
			c3.9,0.3,7.8,0.8,11.7,1.4c3.9,0.6,7.8,1.3,11.7,2.1c3.9,0.8,7.2,1.8,10,2.9L1050.8,292.3z"/>
		<path class="st0" d="M1241.1,421.4c-8.7,2.5-19.9,4.9-33.7,7c-13.7,2.2-28.2,3.3-43.3,3.3c-15.3,0-28.1-2.1-38.3-6.2
			c-10.2-4.1-18.3-9.9-24.2-17.3c-6-7.4-10.2-16.3-12.7-26.6c-2.5-10.3-3.8-21.6-3.8-34V246.9h51.2v94.5c0,16.5,2.2,28.4,6.5,35.7
			c4.3,7.3,12.5,11,24.4,11c3.7,0,7.6-0.2,11.7-0.5c4.1-0.3,7.8-0.7,11-1.2V246.9h51.2V421.4z"/>
	</g>
</g>
<g>
	<g>
		<path class="st0" d="M610.6,583.3c-26.9,0-47.4-7.5-61.5-22.5c-14.1-15-21.1-36.2-21.1-63.8c0-13.7,2.1-25.9,6.4-36.7
			c4.3-10.7,10.2-19.8,17.7-27.2c7.5-7.4,16.4-13,26.8-16.8c10.3-3.8,21.6-5.7,33.7-5.7c7,0,13.4,0.5,19.1,1.6
			c5.7,1,10.7,2.2,15,3.6c4.3,1.4,7.9,2.7,10.7,4.2s4.9,2.5,6.2,3.3l-10.7,30.1c-5.1-2.7-11-5-17.8-6.9c-6.8-1.9-14.5-2.9-23-2.9
			c-5.7,0-11.3,1-16.8,2.9c-5.5,1.9-10.4,5-14.6,9.2c-4.2,4.2-7.6,9.7-10.2,16.4c-2.5,6.7-3.8,14.8-3.8,24.4
			c0,7.6,0.8,14.8,2.5,21.4c1.7,6.6,4.4,12.3,8.1,17.1c3.7,4.8,8.6,8.6,14.7,11.3c6,2.8,13.4,4.2,22,4.2c5.4,0,10.3-0.3,14.6-1
			c4.3-0.6,8.1-1.4,11.5-2.3c3.3-0.9,6.3-1.9,8.8-3c2.5-1.1,4.9-2.2,6.9-3.1l10.3,29.9c-5.3,3.2-12.7,6.1-22.2,8.6
			C634.2,582,623.2,583.3,610.6,583.3z"/>
		<path class="st0" d="M802.2,516.9c0,9.9-1.4,18.9-4.3,27.1c-2.9,8.2-7,15.2-12.4,21c-5.4,5.8-11.9,10.3-19.5,13.5
			c-7.6,3.2-16,4.8-25.4,4.8c-9.2,0-17.6-1.6-25.2-4.8c-7.6-3.2-14.1-7.7-19.5-13.5c-5.4-5.8-9.6-12.8-12.7-21
			c-3-8.2-4.5-17.2-4.5-27.1c0-9.9,1.6-18.9,4.7-27s7.4-15,12.9-20.8c5.5-5.7,12-10.2,19.6-13.4c7.6-3.2,15.8-4.8,24.7-4.8
			c9.1,0,17.4,1.6,25,4.8c7.6,3.2,14.1,7.6,19.5,13.4c5.4,5.7,9.6,12.7,12.7,20.8C800.6,498,802.2,507,802.2,516.9z M765.8,516.9
			c0-11-2.2-19.6-6.6-25.9c-4.4-6.3-10.6-9.4-18.8-9.4c-8.1,0-14.4,3.1-18.9,9.4c-4.5,6.3-6.7,14.9-6.7,25.9s2.2,19.7,6.7,26.2
			c4.5,6.4,10.7,9.7,18.9,9.7c8.1,0,14.4-3.2,18.8-9.7C763.7,536.6,765.8,527.9,765.8,516.9z"/>
		<path class="st0" d="M879.8,582.4c-10.4-0.2-18.8-1.3-25.2-3.3c-6.4-2.1-11.5-5-15.3-8.7c-3.7-3.7-6.3-8.3-7.6-13.6
			c-1.4-5.3-2-11.3-2-18V400.4l35.6-5.7v136.9c0,3.2,0.2,6.1,0.7,8.6c0.5,2.5,1.4,4.7,2.7,6.4c1.4,1.8,3.3,3.2,5.9,4.3
			c2.5,1.1,6,1.8,10.3,2.1L879.8,582.4z"/>
		<path class="st0" d="M1022.6,516.9c0,9.9-1.4,18.9-4.3,27.1c-2.9,8.2-7,15.2-12.4,21c-5.4,5.8-11.9,10.3-19.5,13.5
			c-7.6,3.2-16,4.8-25.4,4.8c-9.2,0-17.6-1.6-25.2-4.8c-7.6-3.2-14.1-7.7-19.5-13.5c-5.4-5.8-9.6-12.8-12.7-21
			c-3-8.2-4.5-17.2-4.5-27.1c0-9.9,1.6-18.9,4.7-27s7.4-15,12.9-20.8c5.5-5.7,12-10.2,19.6-13.4c7.6-3.2,15.8-4.8,24.7-4.8
			c9.1,0,17.4,1.6,25,4.8c7.6,3.2,14.1,7.6,19.5,13.4c5.4,5.7,9.6,12.7,12.7,20.8C1021.1,498,1022.6,507,1022.6,516.9z M986.3,516.9
			c0-11-2.2-19.6-6.6-25.9c-4.4-6.3-10.6-9.4-18.8-9.4c-8.1,0-14.4,3.1-18.9,9.4c-4.5,6.3-6.7,14.9-6.7,25.9s2.2,19.7,6.7,26.2
			c4.5,6.4,10.7,9.7,18.9,9.7c8.1,0,14.4-3.2,18.8-9.7C984.1,536.6,986.3,527.9,986.3,516.9z"/>
		<path class="st0" d="M1125.8,485.9c-3.2-0.8-6.9-1.6-11.2-2.5c-4.3-0.9-8.9-1.3-13.9-1.3c-2.2,0-4.9,0.2-8,0.6
			c-3.1,0.4-5.5,0.8-7,1.3v96h-35.6V461c6.4-2.2,13.9-4.3,22.6-6.3c8.7-2,18.4-3,29-3c1.9,0,4.2,0.1,6.9,0.4c2.7,0.2,5.4,0.6,8.1,1
			c2.7,0.4,5.4,0.9,8.1,1.4c2.7,0.6,5,1.2,6.9,2L1125.8,485.9z"/>
		<path class="st0" d="M1186.9,554.4c6.5,0,11.1-0.6,13.9-1.9c2.7-1.3,4.1-3.7,4.1-7.4c0-2.9-1.8-5.4-5.3-7.5
			c-3.5-2.1-8.8-4.6-16-7.3c-5.6-2.1-10.6-4.2-15.2-6.4c-4.5-2.2-8.4-4.9-11.6-8c-3.2-3.1-5.7-6.8-7.4-11.1
			c-1.8-4.3-2.6-9.5-2.6-15.5c0-11.8,4.4-21.1,13.1-27.9c8.8-6.8,20.8-10.3,36.1-10.3c7.6,0,15,0.7,22,2c7,1.4,12.6,2.8,16.7,4.4
			l-6.2,27.7c-4.1-1.4-8.6-2.7-13.5-3.8c-4.9-1.1-10.3-1.7-16.4-1.7c-11.1,0-16.7,3.1-16.7,9.3c0,1.4,0.2,2.7,0.7,3.8
			c0.5,1.1,1.4,2.2,2.9,3.2c1.4,1,3.4,2.2,5.9,3.4c2.5,1.2,5.6,2.5,9.4,4c7.8,2.9,14.2,5.7,19.3,8.5c5.1,2.8,9.1,5.8,12.1,9.1
			c2.9,3.3,5,6.9,6.2,10.8c1.2,4,1.8,8.6,1.8,13.8c0,12.4-4.7,21.8-14,28.1c-9.3,6.4-22.5,9.5-39.5,9.5c-11.1,0-20.4-1-27.8-2.9
			s-12.5-3.5-15.4-4.8l6-28.9c6,2.4,12.3,4.3,18.6,5.6C1174.4,553.7,1180.7,554.4,1186.9,554.4z"/>
	</g>
</g>
<g>
	
		<image style="overflow:visible;opacity:0.54;" width="745" height="95" xlink:href="75E27DF4.png"  transform="matrix(1 0 0 1 511 384)">
	</image>
	<g>
		<path class="st0" d="M1208.5,460h-650c-17.9,0-32.5-14.6-32.5-32.5v0c0-17.9,14.6-32.5,32.5-32.5h650c17.9,0,32.5,14.6,32.5,32.5
			v0C1241,445.4,1226.4,460,1208.5,460z"/>
	</g>
</g>
<linearGradient id="Orange_1_" gradientUnits="userSpaceOnUse" x1="541.6097" y1="417.7484" x2="574.7967" y2="436.9089">
	<stop  offset="0" style="stop-color:#E95420"/>
	<stop  offset="0.4698" style="stop-color:#E97320"/>
	<stop  offset="1" style="stop-color:#E99B20"/>
</linearGradient>
<circle id="Orange" class="st1" cx="558.5" cy="427.5" r="19.5"/>
<linearGradient id="Amber_1_" gradientUnits="userSpaceOnUse" x1="591.6097" y1="417.7484" x2="625.3903" y2="437.2516">
	<stop  offset="0" style="stop-color:#EEA834"/>
	<stop  offset="0.7069" style="stop-color:#EEC734"/>
	<stop  offset="0.9944" style="stop-color:#EED534"/>
</linearGradient>
<circle id="Amber" class="st2" cx="608.5" cy="427.5" r="19.5"/>
<linearGradient id="Aqua_1_" gradientUnits="userSpaceOnUse" x1="641.6097" y1="417.7484" x2="675.3903" y2="437.2516">
	<stop  offset="0" style="stop-color:#41C6C8"/>
	<stop  offset="1" style="stop-color:#31E4AE"/>
</linearGradient>
<circle id="Aqua" class="st3" cx="658.5" cy="427.5" r="19.5"/>
<linearGradient id="Blue_1_" gradientUnits="userSpaceOnUse" x1="691.6097" y1="417.7484" x2="725.3903" y2="437.2516">
	<stop  offset="0" style="stop-color:#208FE9"/>
	<stop  offset="0.522" style="stop-color:#15AEEF"/>
	<stop  offset="1" style="stop-color:#0ACEF5"/>
</linearGradient>
<circle id="Blue" class="st4" cx="708.5" cy="427.5" r="19.5"/>
<linearGradient id="Brown_1_" gradientUnits="userSpaceOnUse" x1="741.6097" y1="417.7484" x2="775.3903" y2="437.2516">
	<stop  offset="0" style="stop-color:#995640"/>
	<stop  offset="0.9944" style="stop-color:#AD7358"/>
</linearGradient>
<circle id="Brown" class="st5" cx="758.5" cy="427.5" r="19.5"/>
<linearGradient id="Deepblue_1_" gradientUnits="userSpaceOnUse" x1="791.6097" y1="417.7484" x2="825.3903" y2="437.2516">
	<stop  offset="0" style="stop-color:#25469D"/>
	<stop  offset="0.476" style="stop-color:#155ABC"/>
	<stop  offset="1" style="stop-color:#0274E3"/>
</linearGradient>
<circle id="Deepblue" class="st6" cx="808.5" cy="427.5" r="19.5"/>
<linearGradient id="Green_1_" gradientUnits="userSpaceOnUse" x1="841.6097" y1="417.7484" x2="875.3903" y2="437.2516">
	<stop  offset="0" style="stop-color:#3EB34F"/>
	<stop  offset="0.3636" style="stop-color:#5DC257"/>
	<stop  offset="1" style="stop-color:#9CE166"/>
</linearGradient>
<circle id="Green" class="st7" cx="858.5" cy="427.5" r="19.5"/>
<linearGradient id="Grey_1_" gradientUnits="userSpaceOnUse" x1="891.6097" y1="417.7484" x2="925.3903" y2="437.2516">
	<stop  offset="0" style="stop-color:#9C9C9C"/>
	<stop  offset="0.7108" style="stop-color:#BBBBBB"/>
	<stop  offset="1" style="stop-color:#C9C9C9"/>
</linearGradient>
<circle id="Grey" class="st8" cx="908.5" cy="427.5" r="19.5"/>
<linearGradient id="MATE_1_" gradientUnits="userSpaceOnUse" x1="941.6097" y1="417.7484" x2="975.3903" y2="437.2516">
	<stop  offset="0" style="stop-color:#78AB50"/>
	<stop  offset="0.5632" style="stop-color:#94BF6F"/>
	<stop  offset="1" style="stop-color:#ADD08A"/>
</linearGradient>
<circle id="MATE" class="st9" cx="958.5" cy="427.5" r="19.5"/>
<linearGradient id="Pink_1_" gradientUnits="userSpaceOnUse" x1="991.6097" y1="417.7484" x2="1025.3903" y2="437.2516">
	<stop  offset="0" style="stop-color:#E920A3"/>
	<stop  offset="0.4029" style="stop-color:#EC3FB4"/>
	<stop  offset="1" style="stop-color:#F174D2"/>
</linearGradient>
<circle id="Pink" class="st10" cx="1008.5" cy="427.5" r="19.5"/>
<linearGradient id="Purple_1_" gradientUnits="userSpaceOnUse" x1="1075.3903" y1="437.2516" x2="1041.6097" y2="417.7484">
	<stop  offset="0" style="stop-color:#924D8B"/>
	<stop  offset="0.9449" style="stop-color:#734D92"/>
	<stop  offset="1" style="stop-color:#714D92"/>
</linearGradient>
<circle id="Purple" class="st11" cx="1058.5" cy="427.5" r="19.5"/>
<linearGradient id="Red_1_" gradientUnits="userSpaceOnUse" x1="1091.6097" y1="417.7484" x2="1125.3903" y2="437.2516">
	<stop  offset="0" style="stop-color:#E92020"/>
	<stop  offset="0.5459" style="stop-color:#F43F27"/>
	<stop  offset="1" style="stop-color:#FF5C2E"/>
</linearGradient>
<circle id="Red" class="st12" cx="1108.5" cy="427.5" r="19.5"/>
<linearGradient id="Teal_1_" gradientUnits="userSpaceOnUse" x1="1141.6097" y1="417.7484" x2="1175.3903" y2="437.2516">
	<stop  offset="0" style="stop-color:#16A085"/>
	<stop  offset="0.5544" style="stop-color:#14BF9E"/>
	<stop  offset="1" style="stop-color:#12DBB4"/>
</linearGradient>
<circle id="Teal" class="st13" cx="1158.5" cy="427.5" r="19.5"/>
<linearGradient id="Yellow_1_" gradientUnits="userSpaceOnUse" x1="1191.6097" y1="417.7484" x2="1225.3903" y2="437.2516">
	<stop  offset="0" style="stop-color:#E99C20"/>
	<stop  offset="0.4415" style="stop-color:#E9BB20"/>
	<stop  offset="1" style="stop-color:#E9E820"/>
</linearGradient>
<circle id="Yellow" class="st14" cx="1208.5" cy="427.5" r="19.5"/>
<path class="st15" d="M603,427"/>
<image style="display:none;overflow:visible;" width="786" height="606" xlink:href="75E27DFC.jpg"  transform="matrix(1 0 0 1 1165 534)">
</image>
<linearGradient id="SVGID_1_" gradientUnits="userSpaceOnUse" x1="883.5" y1="396" x2="883.5" y2="461">
	<stop  offset="0" style="stop-color:#666666"/>
	<stop  offset="1" style="stop-color:#666666;stop-opacity:0"/>
</linearGradient>
<path class="st16" d="M1209,460H558c-16.6,0-30-13.4-30-30v-3c0-16.6,13.4-30,30-30h651c16.6,0,30,13.4,30,30v3
	C1239,446.6,1225.6,460,1209,460z"/>
<g>
</g>
<g>
</g>
<g>
</g>
<g>
</g>
<g>
</g>
<g>
</g>
<g>
</g>
<g>
</g>
<g>
</g>
<g>
</g>
<g>
</g>
<g>
</g>
<g>
</g>
<g>
</g>
<g>
</g>
</svg>
